<svg width="48" height="48" viewBox="0 0 48 48" fill="none" xmlns="http://www.w3.org/2000/svg">
<circle cx="24" cy="24" r="24" fill="#F22B31"/>
<path fill-rule="evenodd" clip-rule="evenodd" d="M18.5592 16.0187H31.3932C33.9112 16.0187 35.9524 18.06 35.9524 20.578V26.9936C35.9524 29.5116 33.9112 31.5528 31.3932 31.5528H18.5592C16.0412 31.5528 14 29.5116 14 26.9936V20.578C14 18.06 16.0412 16.0187 18.5592 16.0187ZM22.307 26.9609L28.3098 24.0979C28.4904 24.0118 28.4935 23.7559 28.315 23.6655L22.3121 20.6235C22.1519 20.5423 21.9622 20.6587 21.9622 20.8385V26.7434C21.9622 26.9206 22.147 27.0372 22.307 26.9609Z" fill="white"/>
</svg>
