<svg width="21" height="18" viewBox="0 0 21 18" fill="none" xmlns="http://www.w3.org/2000/svg">
<path d="M19.7447 0.991488C19.5827 0.796985 19.3425 0.684694 19.0894 0.685105H12.034C11.564 0.685105 11.183 1.06614 11.183 1.53617C11.183 2.0062 11.564 2.38723 12.034 2.38723H18.066L16.9085 8.63404C16.7773 9.33931 16.162 9.85086 15.4447 9.85106H7.80638C7.08352 9.85058 6.46537 9.33112 6.34042 8.61915L5.23617 2.31702C5.00365 0.993889 3.85404 0.0291456 2.51063 0.0297855H0.910634C0.440605 0.0297855 0.0595703 0.41082 0.0595703 0.880849C0.0595703 1.35088 0.440605 1.73191 0.910634 1.73191H2.51063C3.02714 1.73248 3.4686 2.10396 3.55744 2.61276L4.66383 8.91489C4.9314 10.4412 6.25675 11.5548 7.80638 11.5553H15.4425C16.9839 11.5546 18.3044 10.4525 18.5808 8.93617L19.9277 1.68085C19.9705 1.43535 19.9037 1.1834 19.7447 0.991488Z" fill="#1D252D" stroke="#1D252D" stroke-width="0.2"/>
<path fill-rule="evenodd" clip-rule="evenodd" d="M10.2693 15.4976C9.89503 16.4018 9.01279 16.9914 8.03414 16.9914C6.6994 16.9903 5.61734 15.9092 5.61499 14.5744C5.61413 13.5958 6.20299 12.713 7.1069 12.3379C8.0108 11.9628 9.05167 12.1692 9.74399 12.8609C10.4363 13.5527 10.6437 14.5933 10.2693 15.4976ZM8.75116 14.5723C8.75116 14.1763 8.43014 13.8553 8.03414 13.8553V13.8574C7.64088 13.862 7.32286 14.179 7.31712 14.5723C7.31712 14.9683 7.63814 15.2893 8.03414 15.2893C8.43014 15.2893 8.75116 14.9683 8.75116 14.5723Z" fill="#1D252D"/>
<path d="M8.03414 16.9914L8.03405 17.0914H8.03414V16.9914ZM5.61499 14.5744L5.51499 14.5745L5.51499 14.5746L5.61499 14.5744ZM7.1069 12.3379L7.14523 12.4303L7.1069 12.3379ZM9.74399 12.8609L9.81466 12.7902L9.74399 12.8609ZM8.03414 13.8553V13.7553H7.93414V13.8553H8.03414ZM8.03414 13.8574L8.0353 13.9574L8.13414 13.9562V13.8574H8.03414ZM7.31712 14.5723L7.21712 14.5708V14.5723H7.31712ZM8.03414 17.0914C9.05324 17.0914 9.97196 16.4774 10.3617 15.5358L10.177 15.4593C9.81811 16.3262 8.97234 16.8914 8.03414 16.8914V17.0914ZM5.51499 14.5746C5.51744 15.9645 6.64419 17.0902 8.03405 17.0914L8.03423 16.8914C6.75461 16.8903 5.71724 15.8539 5.71499 14.5742L5.51499 14.5746ZM7.06857 12.2455C6.1273 12.6362 5.5141 13.5554 5.51499 14.5745L5.71499 14.5743C5.71417 13.6361 6.27869 12.7899 7.14523 12.4303L7.06857 12.2455ZM9.81466 12.7902C9.09373 12.0699 8.00984 11.8549 7.06857 12.2455L7.14523 12.4303C8.01177 12.0707 9.00961 12.2686 9.67331 12.9317L9.81466 12.7902ZM10.3617 15.5358C10.7515 14.5942 10.5356 13.5105 9.81466 12.7902L9.67331 12.9317C10.337 13.5948 10.5358 14.5925 10.177 15.4593L10.3617 15.5358ZM8.03414 13.9553C8.37491 13.9553 8.65116 14.2315 8.65116 14.5723H8.85116C8.85116 14.1211 8.48537 13.7553 8.03414 13.7553V13.9553ZM8.13414 13.8574V13.8553H7.93414V13.8574H8.13414ZM7.41711 14.5738C7.42206 14.2347 7.69624 13.9613 8.0353 13.9574L8.03298 13.7574C7.58551 13.7626 7.22366 14.1234 7.21713 14.5708L7.41711 14.5738ZM8.03414 15.1893C7.69337 15.1893 7.41712 14.9131 7.41712 14.5723H7.21712C7.21712 15.0235 7.58291 15.3893 8.03414 15.3893V15.1893ZM8.65116 14.5723C8.65116 14.9131 8.37491 15.1893 8.03414 15.1893V15.3893C8.48537 15.3893 8.85116 15.0235 8.85116 14.5723H8.65116Z" fill="#1D252D"/>
<path fill-rule="evenodd" clip-rule="evenodd" d="M16.3421 12.3379C17.246 12.713 17.8348 13.5958 17.834 14.5744C17.8316 15.9092 16.7496 16.9903 15.4148 16.9914C14.4362 16.9914 13.5539 16.4018 13.1796 15.4976C12.8053 14.5933 13.0127 13.5527 13.705 12.8609C14.3973 12.1692 15.4382 11.9628 16.3421 12.3379ZM15.4148 13.8574C15.0188 13.8574 14.6978 14.1784 14.6978 14.5744C14.7024 14.9685 15.0207 15.2868 15.4148 15.2914C15.8108 15.2914 16.1318 14.9704 16.1318 14.5744C16.1318 14.1784 15.8108 13.8574 15.4148 13.8574Z" fill="#1D252D"/>
<path d="M17.834 14.5744L17.934 14.5746V14.5745L17.834 14.5744ZM16.3421 12.3379L16.3037 12.4303L16.3421 12.3379ZM15.4148 16.9914V17.0914H15.4149L15.4148 16.9914ZM13.1796 15.4976L13.0872 15.5358L13.1796 15.4976ZM13.705 12.8609L13.6343 12.7902L13.705 12.8609ZM14.6978 14.5744H14.5978L14.5978 14.5756L14.6978 14.5744ZM15.4148 15.2914L15.4137 15.3914H15.4148V15.2914ZM17.934 14.5745C17.9349 13.5554 17.3217 12.6362 16.3804 12.2455L16.3037 12.4303C17.1703 12.7899 17.7348 13.6361 17.734 14.5743L17.934 14.5745ZM15.4149 17.0914C16.8048 17.0902 17.9315 15.9645 17.934 14.5746L17.734 14.5742C17.7317 15.8539 16.6944 16.8903 15.4147 16.8914L15.4149 17.0914ZM13.0872 15.5358C13.477 16.4774 14.3957 17.0914 15.4148 17.0914V16.8914C14.4766 16.8914 13.6309 16.3262 13.272 15.4593L13.0872 15.5358ZM13.6343 12.7902C12.9134 13.5105 12.6974 14.5942 13.0872 15.5358L13.272 15.4593C12.9132 14.5925 13.112 13.5948 13.7757 12.9317L13.6343 12.7902ZM16.3804 12.2455C15.4391 11.8549 14.3552 12.0699 13.6343 12.7902L13.7757 12.9317C14.4394 12.2686 15.4372 12.0707 16.3037 12.4303L16.3804 12.2455ZM14.7978 14.5744C14.7978 14.2337 15.0741 13.9574 15.4148 13.9574V13.7574C14.9636 13.7574 14.5978 14.1232 14.5978 14.5744H14.7978ZM15.416 15.1915C15.0762 15.1875 14.8018 14.913 14.7978 14.5733L14.5978 14.5756C14.603 15.024 14.9653 15.3862 15.4137 15.3914L15.416 15.1915ZM16.0318 14.5744C16.0318 14.9152 15.7556 15.1914 15.4148 15.1914V15.3914C15.8661 15.3914 16.2318 15.0257 16.2318 14.5744H16.0318ZM15.4148 13.9574C15.7556 13.9574 16.0318 14.2337 16.0318 14.5744H16.2318C16.2318 14.1232 15.8661 13.7574 15.4148 13.7574V13.9574Z" fill="#1D252D"/>
</svg>
